# xmcd
#
# Track frame offsets:
# 150
# 21767
# 43614
# 62222
# 73431
# 89014
# 99465
# 115901
# 133195
# 178926
# 193646
# 210278
# 230112
#
# Disc length: 3209 seconds
#
#
# Revision: 0
# Processed by: cddbd v1.4PL0 Copyright (c) Steve Scherf et al.
# Submitted via: FreeRIP 2.00 
#
DISCID=c60c870d
DTITLE=Micky Moody - I Eat Them For Breakfast
DYEAR=1900
DGENRE=Blues
TTITLE0=On Common Ground
TTITLE1=Alimony
TTITLE2=Delta Bluesman
TTITLE3=Mixed-Up Blues
TTITLE4=My Lady Friend
TTITLE5=14-String Rag
TTITLE6=Me And My Guitar
TTITLE7=Just Leave Me Alone
TTITLE8=Turning Point (Parts 1-5)
TTITLE9=Obsession
TTITLE10=Let This Boy Boogie
TTITLE11=My Word For Trouble (W.O.M.A.N.)
TTITLE12=Journey Home
EXTD=
EXTT0=
EXTT1=
EXTT2=
EXTT3=
EXTT4=
EXTT5=
EXTT6=
EXTT7=
EXTT8=
EXTT9=
EXTT10=
EXTT11=
EXTT12=
PLAYORDER=
